<?xml version="1.0" encoding="utf-8"?>
<!-- Generator: Adobe Illustrator 22.1.0, SVG Export Plug-In . SVG Version: 6.00 Build 0)  -->
<svg version="1.1" id="header_dow-logo-lockup--desktop"
	 xmlns="http://www.w3.org/2000/svg" xmlns:xlink="http://www.w3.org/1999/xlink" x="0px" y="0px" viewBox="0 0 129.9 43"
	 style="enable-background:new 0 0 129.9 43;" xml:space="preserve">
<style type="text/css">
	.st0{fill:#E80033;}
	.st1{fill:#FFFFFF;}
</style>
<title>Artboard 1</title>
<polygon id="Fill-1" class="st0" points="79.5,4.8 64.9,0 0,21.4 64.9,43 129.9,21.3 "/>
<path id="Fill-2" class="st1" d="M65.1,25.8c-2.7,0-5-1.4-5-3.7s2.2-3.8,5-3.8c2.8,0,5,1.6,5,3.8S67.9,25.8,65.1,25.8 M65.2,14.2
	c-5.4,0-9.4,3.1-9.4,7.9s4.2,7.7,9.3,7.7s9.4-2.8,9.5-7.7C74.6,17.4,70.4,14.2,65.2,14.2"/>
<path id="Fill-4" class="st1" d="M74.4,15.5h8v1H82c-0.4,0-0.8,0.3-0.9,0.7c-0.2,0.3-0.2,0.7,0,1l2.4,5.7l3.3-8.3h4.4l3.4,8.3
	l2.5-5.9c0.1-0.3,0-0.6-0.2-0.8c-0.2-0.3-0.5-0.5-0.8-0.5h-0.5v-1h7.9v1H103c-0.4,0-0.8,0.2-1.1,0.5c-0.3,0.2-0.6,0.5-0.7,0.9
	l-3.9,9c-0.1,0.3-0.1,0.6,0,0.9c0.2,0.2,0.4,0.4,0.7,0.4h0.6v1h-7.9v-0.9h0.6c0.3,0,0.5-0.2,0.6-0.4c0.1-0.2,0.1-0.5,0-0.7L89,20.8
	l-2.8,6.5C86,27.5,86,27.8,86.1,28c0.1,0.2,0.3,0.4,0.6,0.4H87v1h-7.8v-1h0.4c0.3,0,0.6-0.2,0.7-0.4c0.2-0.3,0.2-0.6,0-0.9l-3.9-9.3
	c-0.1-0.4-0.3-0.7-0.7-0.8c-0.3-0.1-0.6-0.4-0.9-0.4h-0.5L74.4,15.5"/>
<path id="Fill-6" class="st1" d="M44,25.7h-5.7v-9.9h5.8c2.7,0,4.3,1.4,4.6,4.9c0.2,2.5-1.6,4.7-4.1,5H44 M44.2,12.2h-12v1h0.6
	c0.6,0,1.2,0.5,1.3,1.1v12.8c0,0.3-0.1,0.7-0.3,0.8c-0.2,0.3-0.5,0.5-0.9,0.5h-0.6v1h12.1c4.8-0.1,8.6-3.9,8.7-8.7
	C52.9,15.6,48,12.2,44.2,12.2"/>
<path id="Fill-8" class="st0" d="M99.8,37.6h0.7c0.3,0,0.6-0.2,0.6-0.5V37c0-0.3-0.2-0.6-0.5-0.6h-0.8L99.8,37.6z M99.8,39.6h-0.6
	V36h1.4c0.5,0,0.9,0.3,1,0.8V37c0,0.4-0.3,0.7-0.7,0.8l0,0c0.5,0.1,0.7,0.2,0.7,0.9c0,0.3,0.1,0.6,0.2,0.9h-0.6
	c-0.1-0.4-0.2-0.8-0.2-1.2c0-0.2-0.2-0.4-0.4-0.4c-0.1,0-0.1,0-0.2,0h-0.6C99.8,38,99.8,39.6,99.8,39.6z M97.8,37.9
	c0,1.5,1.1,2.7,2.6,2.7c1.5,0,2.7-1.1,2.7-2.6c0-1.5-1.1-2.7-2.6-2.7l0,0c-1.4-0.1-2.6,0.9-2.7,2.3C97.8,37.7,97.8,37.8,97.8,37.9z
	 M103.6,37.9c0,1.7-1.4,3.2-3.1,3.2c-1.7,0-3.2-1.4-3.2-3.1c0-1.7,1.4-3.2,3.1-3.2h0.1c1.7,0,3.1,1.3,3.1,3
	C103.6,37.8,103.6,37.9,103.6,37.9z"/>
</svg>
