<svg xmlns="http://www.w3.org/2000/svg" width="178" height="21" viewBox="0 0 178 21">
    <g fill="none" fill-rule="evenodd">
        <g fill="#E9530E">
            <path d="M59.72 66c.893 0 1.894.071 3.001.142.538.072 1.11.143 1.643.25.538.037 1.145.178 1.788.322l.5 5.54c-1.036-.287-1.93-.501-2.644-.608-.75-.142-1.358-.215-1.893-.215-.501 0-.895.108-1.215.286-.323.143-.465.358-.465.679 0 .393.714 1.107 2.144 2.108l.822.571c1.464 1.001 2.429 1.895 2.93 2.646.501.751.75 1.643.75 2.609 0 2.036-.82 3.573-2.394 4.61-1.572 1.035-3.932 1.536-7.076 1.536h-1.394c-.463-.036-.965-.107-1.537-.178-.536-.036-1.072-.143-1.57-.214-.502-.109-1.038-.18-1.61-.322l-.5-6.113c.536.18 1.072.36 1.608.538.429.143.93.285 1.43.43.858.177 1.572.284 2.143.284.573 0 1-.071 1.323-.215.322-.143.465-.392.465-.643 0-.428-.645-1.108-1.966-2.144-.178-.142-.393-.32-.714-.5-.18-.178-.358-.358-.536-.465-1.358-1.072-2.252-1.964-2.788-2.75-.5-.786-.785-1.646-.785-2.574 0-1.645.82-2.966 2.357-4.038C55.145 66.5 57.182 66 59.72 66zm75.903.322l-.215 5.217c-.427-.035-.82-.073-1.25-.142-.429 0-.822-.038-1.214-.038l-2.253-.07h-4.825l-.106 2.394h3.644c.607-.071 1.321-.071 2.108-.107.705-.03 1.28-.035 1.788-.035h.429l-.214 5.145-1.753-.108h-6.253l-.179 2.394h4.181l2.86-.035c.429 0 .822-.036 1.178-.072.358-.035.787-.035 1.323-.106l-.214 5.254h-17.153c.143-.894.214-1.823.32-2.788.036-.287.036-.536.072-.786.107-.751.144-1.467.18-2.216.07-1.001.107-2.039.107-3.038 0-.965.035-2.072.106-3.36.036-1.25.073-2.608.143-4.002.073-1.428.108-2.573.108-3.5h17.082zm13.4 0c1.573 0 2.717.105 3.432.25.678.142 1.32.357 1.857.714.68.464 1.18 1.071 1.574 1.858.356.823.571 1.717.571 2.716 0 1.251-.322 2.394-.965 3.288-.607.965-1.537 1.68-2.824 2.215.18.536.358 1.179.61 1.895.177.715.427 1.43.642 2.145.215.678.465 1.428.714 2.144.18.534.429 1.357.822 2.464h-8.005c-.285-1.535-.642-3.251-1.036-5.146-.393-1.751-.858-3.751-1.358-5.86l.286-.357h.536l.607.071c.857 0 1.466-.144 1.895-.429.392-.287.607-.678.607-1.25 0-.571-.18-.965-.607-1.252-.356-.249-1.038-.391-1.966-.391h-.25c-.072 0-.215.034-.43.07l-.965.108-.356 8.003-.071 2.61v3.823h-7.54c.069-.856.177-1.786.284-2.715.109-.93.215-1.93.251-2.93.071-1.002.107-2.038.107-3.074 0-.93.036-2.073.071-3.36.071-1.285.144-2.644.18-4.074.071-1.392.107-2.572.107-3.536h11.22zm18.048 0c-.109.748-.25 1.464-.323 2.144-.106 1.072-.213 2.144-.213 3.144 0 .786-.036 1.644-.072 2.644-.035.965-.106 2.037-.18 3.18-.035 1.144-.07 2.181-.07 3.11h5.074l3.002-.143-.285 5.61h-16.01c.07-.856.178-1.786.285-2.75.106-.93.18-1.93.25-2.967.072-1.036.107-2.037.107-2.966 0-.857.036-1.966.109-3.287 0-1.288.071-2.644.142-4.038.036-1.359.072-2.575.072-3.68h8.112zm17.784 0c-.108.786-.18 1.608-.286 2.465-.071.858-.18 1.751-.216 2.752-.07.965-.14 1.929-.14 2.93l-.001.549c-.002.775-.014 1.724-.072 2.81-.072 1.358-.143 2.75-.214 4.18-.071 1.395-.071 2.753-.071 4.003h-8.005c.107-.856.213-1.75.285-2.68.144-.965.215-1.928.286-2.93.071-1 .107-2.037.107-3.073 0-.965.036-2.073.071-3.36.073-1.286.109-2.644.18-4.074.036-1.428.107-2.608.107-3.572h7.97zm11.733 0l5.039 10.076.429-5.468.07-1.821v-2.787h6.863l-.358 2.858-.142 2.144-.323 6.969-.035.858c0 .678 0 1.357-.036 2.072-.101 1.765-.14 2.756-.144 2.974v1.458c0 .107 0 .214.037.356h-8.97c-.571-1.535-1.323-3.144-2.215-4.752l-.286-.607-2.395-4.754-.214 4.002v.216c0 .75-.036 1.572-.071 2.464-.107 2.181-.144 3.324-.144 3.431h-7.218c.18-1.572.322-2.966.429-4.11.213-2 .357-4.18.464-6.43.143-2.324.178-4.79.178-7.541l.107-1.608h8.935zm32.412 0l-.25 5.217c-.393-.035-.822-.073-1.25-.142-.43 0-.822-.038-1.215-.038l-2.215-.07h-4.825l-.143 2.394h3.645c.644-.071 1.323-.071 2.144-.109.674-.03 1.269-.034 1.764-.035h.415l-.214 5.147-1.75-.108h-6.218l-.18 2.396h4.147l2.894-.037c.393 0 .785-.036 1.144-.072.357-.035.786-.07 1.322-.106l-.216 5.252h-17.151c.107-.892.178-1.821.32-2.786.072-1.037.178-2.002.216-3.002.106-1.001.142-2.039.142-3.038 0-.965.036-2.072.071-3.36.038-1.25.107-2.608.18-4.002.07-1.43.105-2.573.105-3.5H229zm-151.299 0c-.108.786-.18 1.608-.322 2.465-.071.858-.178 1.751-.215 2.752-.07.965-.143 1.929-.143 2.93 0 .857-.035 2.002-.07 3.359-.072 1.358-.108 2.75-.215 4.18-.072 1.395-.072 2.753-.072 4.003H68.66c.107-.856.214-1.75.322-2.68.106-.965.178-1.928.25-2.93.07-1 .107-2.037.107-3.073 0-.965.037-2.073.106-3.36 0-1.286.073-2.644.179-4.074.037-1.428.072-2.608.072-3.572h8.005zm10.557 0c-.107.748-.213 1.464-.322 2.144-.142 1.072-.178 2.144-.178 3.144 0 .786-.036 1.68-.107 2.644-.035.965-.071 2.037-.144 3.18-.07 1.144-.105 2.181-.105 3.11h5.11l1.715-.072 1.25-.071-.285 5.61h-16.01c.106-.856.177-1.786.322-2.75.07-.93.178-1.93.213-2.967.109-1.036.144-2.037.144-2.966v-.608c.002-.752.008-1.652.034-2.68.073-1.287.145-2.643.18-4.003.071-1.393.107-2.573.107-3.715zm12.223 0c.034.32.106.607.178.964.107.357.107.571.143.678 0 .071.071.251.142.573l3.182 11.114 4.537-10.471.502-1.287.571-1.57h7.612l-.393.785-8.148 16.51-.572 1.143-.5 1.25H99.23l-.356-1.143-.216-.82-4.431-13.832-1.252-3.894h7.506z" transform="translate(-51.000000, -66.000000)"/>
        </g>
    </g>
</svg>
